<?xml version="1.0" encoding="UTF-8"?>
<svg width="18px" height="36px" viewBox="0 0 18 36" version="1.1" xmlns="http://www.w3.org/2000/svg" xmlns:xlink="http://www.w3.org/1999/xlink" xmlns:sketch="http://www.bohemiancoding.com/sketch/ns">
    <!-- Generator: Sketch 3.4.2 (15855) - http://www.bohemiancoding.com/sketch -->
    <title>cb-checkbox</title>
    <desc>Created with Sketch.</desc>
    <defs>
        <path id="path-1" d="M18,15.75 C18,16.9926407 16.9926407,18 15.75,18 L2.25,18 C1.00125,18 0,16.9875 0,15.75 L0,2.25 C0,1.00125 1.00125,0 2.25,0 L15.75,0 C16.9926407,0 18,1.00735931 18,2.25 L18,15.75 L18,15.75 L18,15.75 Z"></path>
    </defs>
    <g id="Page-1" stroke="none" stroke-width="1" fill="none" fill-rule="evenodd" sketch:type="MSPage">
        <g id="cb-checkbox" sketch:type="MSLayerGroup">
            <g id="Custom-Preset">
                <g id="Page-2">
                    <g id="Custom-Preset">
                        <g id="Group">
                            <g id="cb-unchecked-copy">
                                <g id="mask-2" fill="#FFFFFF" sketch:type="MSShapeGroup">
                                    <path d="M18,15.75 C18,16.9926407 16.9926407,18 15.75,18 L2.25,18 C1.00125,18 0,16.9875 0,15.75 L0,2.25 C0,1.00125 1.00125,0 2.25,0 L15.75,0 C16.9926407,0 18,1.00735931 18,2.25 L18,15.75 L18,15.75 L18,15.75 Z" id="path-1"></path>
                                </g>
                                <g id="path-1"></g>
                                <g id="path-1-Clipped">
                                    <mask id="mask-2" sketch:name="path-1" fill="white">
                                        <use xlink:href="#path-1"></use>
                                    </mask>
                                    <g id="path-1"></g>
                                    <path d="M18,15.75 C18,16.9926407 16.9926407,18 15.75,18 L2.25,18 C1.00125,18 0,16.9875 0,15.75 L0,2.25 C0,1.00125 1.00125,0 2.25,0 L15.75,0 C16.9926407,0 18,1.00735931 18,2.25 L18,15.75 L18,15.75 L18,15.75 Z" id="path-1" stroke="#575757" stroke-width="2" sketch:type="MSShapeGroup" mask="url(#mask-2)"></path>
                                </g>
                            </g>
                            <g id="cb-checked-copy" transform="translate(0.000000, 18.000000)" fill="#7400B4" sketch:type="MSShapeGroup">
                                <path d="M18,15.75 C18,16.9926407 16.9926407,18 15.75,18 L2.25,18 C1.00125,18 0,16.9875 0,15.75 L0,2.25 C0,1.00125 1.00125,0 2.25,0 L15.75,0 C16.9926407,0 18,1.00735931 18,2.25 L18,15.75 L18,15.75 L18,15.75 Z M9.99316406,11.3818359 C11.9121094,9.46289062 15.75,5.625 15.75,5.625 L14.16375,4.03875 L7.875,10.31625 L4.39875,6.85125 L2.8125,8.4375 L7.875,13.5 L9.99316406,11.3818359 Z" id="Shape"></path>
                            </g>
                        </g>
                    </g>
                </g>
            </g>
        </g>
    </g>
</svg>